<?xml version="1.0" encoding="utf-8"?>
<svg xmlns="http://www.w3.org/2000/svg" width="500" height="112" viewBox="0 0 500 112">
  <style>
    .main  { fill: #222; }
    .flair { fill: #999; }
  </style>
  <g class="main">
    <path id="J" d="m 73.968749,7.930004 h 19.687499 v 56.193749 q 0,7.818749 -3.656249,13.949999 -3.6,6.13125 -10.125,9.50625 -6.46875,3.375 -14.45625,3.375 -13.387499,0 -20.812499,-6.75 -7.425,-6.75 -7.425,-19.125 h 19.799999 q 0,5.625 1.9125,8.15625 1.96875,2.53125 6.525,2.53125 4.10625,0 6.3,-3.0375 2.25,-3.09375 2.25,-8.606249 z" />
    <path id="S" d="m 148.33125,68.061252 q 0,-4.331249 -3.09375,-6.749999 -3.0375,-2.41875 -10.74375,-5.00625 -7.70625,-2.5875 -12.6,-5.00625 -15.91875,-7.81875 -15.91875,-21.4875 0,-6.806249 3.9375,-11.981249 3.99375,-5.23125 11.25,-8.1 7.25625,-2.925 16.3125,-2.925 8.83125,0 15.80625,3.1499999 7.03125,3.1500001 10.9125,9.0000001 3.88125,5.79375 3.88125,13.274999 h -19.6875 q 0,-5.00625 -3.09375,-7.762499 -3.0375,-2.75625 -8.26875,-2.75625 -5.2875,0 -8.38125,2.3625 -3.0375,2.30625 -3.0375,5.906249 0,3.15 3.375,5.7375 3.375,2.53125 11.86875,5.2875 8.49375,2.7 13.95,5.85 13.275,7.65 13.275,21.093749 0,10.74375 -8.1,16.875 -8.1,6.13125 -22.21875,6.13125 -9.95625,0 -18.05625,-3.54375 -8.04375,-3.6 -12.15,-9.7875 -4.05,-6.24375 -4.05,-14.343749 h 19.8 q 0,6.581249 3.375,9.731249 3.43125,3.09375 11.08125,3.09375 4.89375,0 7.70625,-2.08125 2.86875,-2.1375 2.86875,-5.9625 z" />
    <path id="O" d="m 247.55624,50.567503 q 0,11.98125 -4.44374,21.206249 -4.44375,9.225 -12.65625,14.23125 -8.15625,4.95 -18.61875,4.95 -10.4625,0 -18.5625,-4.78125 -8.1,-4.8375 -12.65625,-13.78125 -4.5,-8.943749 -4.725,-20.531249 v -4.6125 q 0,-12.0375 4.3875,-21.206249 4.44375,-9.225 12.65625,-14.23125 8.26875,-5.00625 18.7875,-5.00625 10.40625,0 18.5625,4.95 8.15625,4.95 12.65625,14.11875 4.55624,9.112499 4.61249,20.924999 z M 227.475,47.136253 q 0,-12.20625 -4.10625,-18.50625 -4.05,-6.356249 -11.64375,-6.356249 -14.85,0 -15.69375,22.274999 l -0.0563,6.01875 q 0,12.0375 3.99375,18.506249 3.99375,6.46875 11.86875,6.46875 7.48125,0 11.53125,-6.35625 4.05,-6.356249 4.10625,-18.281249 z" />
    <path id="N" d="m 326.13749,89.830002 h -19.63125 l -29.025,-50.962499 V 89.830002 H 257.73749 V 7.930004 h 19.74375 l 28.96875,50.962499 V 7.930004 h 19.6875 z" />
    <path id="5" d="m 373.1625,49.780003 5.00625,-41.849999 h 47.86875 v 14.7375 H 393.58125 L 391.725,38.923753 q 2.025,-1.18125 5.2875,-2.08125 3.31875,-0.9 6.46875,-0.9 12.20625,0 18.73125,7.25625 6.58125,7.2 6.58125,20.25 0,7.874999 -3.54375,14.287499 -3.4875,6.35625 -9.84375,9.7875 -6.35625,3.43125 -15.01875,3.43125 -7.70625,0 -14.45625,-3.15 -6.75,-3.20625 -10.575,-8.71875 -3.825,-5.56875 -3.76875,-12.54375 H 390.6 q 0.28125,4.5 2.86875,7.14375 2.5875,2.64375 6.80625,2.64375 9.5625,0 9.5625,-14.174999 0,-13.10625 -11.7,-13.10625 -6.6375,0 -9.9,4.275 z" />
  </g>
  <g class="flair">
    <path id="ob" d="M 29.362499,110.08 Q 9.1124997,104.39875 9.1124997,83.923752 v -11.1375 q 0,-11.362499 -9.112499759604645,-11.362499 V 48.655003 Q 9.1124997,48.655003 9.1124997,37.236253 V 25.423754 q 0.16875,-10.125 5.2312503,-16.36875 5.118749,-6.2437499 15.018749,-9.05624979 l 3.54375,9.89999969 q -7.0875,2.7000001 -7.36875,15.1312501 v 12.206249 q 0,12.6 -10.406249,17.775 10.406249,5.175 10.406249,17.831249 v 12.15 q 0.28125,12.43125 7.36875,15.131248 z" />
    <path id="col" d="m 349.5375,71.436252 q 4.5,0 7.48125,2.7 2.98125,2.64375 2.98125,6.80625 0,4.1625 -2.98125,6.8625 -2.98125,2.64375 -7.48125,2.64375 -4.55625,0 -7.5375,-2.7 -2.925,-2.7 -2.925,-6.80625 0,-4.10625 2.925,-6.80625 2.98125,-2.7 7.5375,-2.7 z m 0,-44.887498 q 4.5,0 7.48125,2.699999 2.98125,2.64375 2.98125,6.80625 0,4.1625 -2.98125,6.8625 -2.98125,2.64375 -7.48125,2.64375 -4.55625,0 -7.5375,-2.7 -2.925,-2.7 -2.925,-6.80625 0,-4.10625 2.925,-6.80625 2.98125,-2.699999 7.5375,-2.699999 z" />
    <path id="com" d="m 445.72499,111.88 -9.5625,-4.5 1.9125,-3.825 q 3.9375,-7.312498 4.10625,-13.949998 v -14.0625 h 15.1875 l -0.0562,12.20625 q -0.0563,6.46875 -3.31875,13.162498 -3.2625,6.69375 -8.26875,10.96875 z" />
    <path id="cb" d="m 467.09998,100.12375 q 7.0875,-2.699998 7.36875,-15.131248 v -12.20625 q 0,-12.656249 10.4625,-17.774999 -10.4625,-5.11875 -10.4625,-17.775 V 25.030004 q -0.28125,-12.43125 -7.36875,-15.1312501 l 3.54375,-9.89999969 q 10.06875,2.81249989 15.13125,9.22499979 5.0625,6.35625 5.11875,16.70625 v 11.306249 q 0,11.41875 9.1125,11.41875 v 12.76875 q -9.1125,0 -9.1125,11.306249 v 11.98125 q -0.39375,19.799998 -20.25,25.368748 z" />
  </g>
</svg>
