<?xml version="1.0" encoding="utf-8"?>
<svg xmlns="http://www.w3.org/2000/svg" width="256" height="256" viewBox="0 0 256 256">
  <style>
    .main  { fill: #eee; }
    .flair { fill: #666; }
  </style>
  <g class="main">
    <path id="J" d="m 75.762127,70.910232 h 23.358741 v 66.672518 q 0,9.27676 -4.338052,16.55134 -4.271312,7.27458 -12.013067,11.27894 -7.675015,4.00435 -17.15199,4.00435 -15.883944,0 -24.693527,-8.00871 -8.809582,-8.00871 -8.809582,-22.69135 h 23.49222 q 0,6.67393 2.269135,9.67719 2.335874,3.00327 7.741754,3.00327 4.871966,0 7.474797,-3.60392 2.669571,-3.67066 2.669571,-10.21111 z" />
    <path id="5" d="m 130.84815,120.56424 5.93979,-49.654008 h 56.79512 V 88.395918 H 155.0745 l -2.20239,19.287642 q 2.40261,-1.40152 6.27349,-2.46935 3.93761,-1.06783 7.67501,-1.06783 14.48242,0 22.22418,8.60937 7.80849,8.54262 7.80849,24.02613 0,9.3435 -4.20457,16.95177 -4.13784,7.54154 -11.67937,11.61264 -7.54154,4.07109 -17.81939,4.07109 -9.14328,0 -17.15199,-3.7374 -8.00871,-3.80414 -12.54698,-10.34458 -4.53827,-6.60719 -4.47153,-14.88286 h 22.55787 q 0.3337,5.33914 3.4037,8.47589 3.07001,3.13674 8.07545,3.13674 11.34568,0 11.34568,-16.81829 0,-15.55025 -13.88177,-15.55025 -7.87523,0 -11.74611,5.07219 z" />
  </g>
  <g class="flair">
    <path id="ob" d="M 34.837894,192.10873 Q 10.81176,185.36806 10.81176,161.07497 V 147.8606 Q 10.81176,134.37927 0,134.37927 v -15.14981 q 10.81176,0 10.81176,-13.54807 V 91.666142 q 0.200218,-12.013067 6.206752,-19.421125 6.073272,-7.408058 17.819382,-10.745021 l 4.204574,11.74611 q -8.409147,3.203484 -8.742843,17.952861 v 14.482423 q 0,14.94959 -12.346764,21.0896 12.346764,6.14002 12.346764,21.15635 v 14.41568 q 0.333696,14.74938 8.742843,17.95286 z" />
    <path id="col" d="m 114.81766,146.25886 q 5.33914,0 8.87632,3.20348 3.53718,3.13675 3.53718,8.07545 0,4.93871 -3.53718,8.14219 -3.53718,3.13675 -8.87632,3.13675 -5.40588,0 -8.94306,-3.20349 -3.47044,-3.20348 -3.47044,-8.07545 0,-4.87196 3.47044,-8.07545 3.53718,-3.20348 8.94306,-3.20348 z m 0,-53.257933 q 5.33914,0 8.87632,3.203485 3.53718,3.136745 3.53718,8.075448 0,4.93871 -3.53718,8.14219 -3.53718,3.13675 -8.87632,3.13675 -5.40588,0 -8.94306,-3.20349 -3.47044,-3.20348 -3.47044,-8.07545 0,-4.871964 3.47044,-8.075448 3.53718,-3.203485 8.94306,-3.203485 z" />
    <path id="com" d="m 204.9418,194.24439 -11.34568,-5.33914 2.26914,-4.53827 q 4.67175,-8.67611 4.87196,-16.55134 v -16.68482 h 18.0196 l -0.0667,14.48242 q -0.0667,7.67502 -3.93761,15.61699 -3.87088,7.94197 -9.81067,13.01416 z" />
    <path id="cb" d="m 218.30272,180.29588 q 8.40914,-3.20348 8.74284,-17.95286 V 147.8606 q 0,-15.01633 12.4135,-21.08961 -12.4135,-6.07327 -12.4135,-21.0896 V 91.198967 q -0.3337,-14.749377 -8.74284,-17.952861 l 4.20457,-11.74611 q 11.94633,3.336963 17.95286,10.945239 6.00653,7.541536 6.07327,19.82156 v 13.414595 q 0,13.54807 10.81176,13.54807 v 15.14981 q -10.81176,0 -10.81176,13.41459 v 14.21546 q -0.46717,23.49222 -24.02613,30.09941 z" />
  </g>
</svg>
