<?xml version="1.0" encoding="utf-8"?>
<svg xmlns="http://www.w3.org/2000/svg" width="256" height="256" viewBox="0 0 256 256">
  <style>
    .main  { fill: #222; }
    .flair { fill: #999; }
  </style>
  <g class="main">
    <path id="J" d="m 78.981444,74.146877 h 22.080076 v 63.022853 q 0,8.76894 -4.100584,15.64531 -4.0375,6.87637 -11.355468,10.66152 -7.254883,3.78516 -16.213086,3.78516 -15.014453,0 -23.341796,-7.57031 -8.327344,-7.57032 -8.327344,-21.44922 h 22.20625 q 0,6.30859 2.144921,9.14746 2.208008,2.83887 7.317969,2.83887 4.605273,0 7.065625,-3.40664 2.523437,-3.46973 2.523437,-9.65215 z" />
    <path id="5" d="m 129.73828,121.08281 5.61465,-46.935933 h 53.68613 v 16.528515 h -36.40058 l -2.08184,18.231838 q 2.2711,-1.32481 5.93008,-2.33418 3.72207,-1.00938 7.25488,-1.00938 13.68965,0 21.00762,8.13809 7.38105,8.075 7.38105,22.71094 0,8.83203 -3.97441,16.02382 -3.91133,7.12871 -11.04004,10.97696 -7.12871,3.84824 -16.84394,3.84824 -8.64278,0 -16.21309,-3.53281 -7.57031,-3.5959 -11.86016,-9.77832 -4.28984,-6.24551 -4.22675,-14.06817 h 21.32304 q 0.31543,5.04688 3.21739,8.01192 2.90195,2.96504 7.63339,2.96504 10.72461,0 10.72461,-15.89766 0,-14.69902 -13.12187,-14.69902 -7.44414,0 -11.10313,4.79453 z" />
  </g>
  <g class="flair">
    <path id="ob" d="M 40.954296,188.71094 Q 18.243359,182.33926 18.243359,159.37598 v -12.49102 q 0,-12.74336 -10.2199216,-12.74336 v -14.32051 q 10.2199216,0 10.2199216,-12.80644 V 93.766603 q 0.189258,-11.355468 5.866992,-18.358007 5.74082,-7.002539 16.843945,-10.156836 l 3.974414,11.103125 q -7.948828,3.028125 -8.264258,16.970117 v 13.689648 q 0,14.13125 -11.670898,19.93516 11.670898,5.8039 11.670898,19.99824 v 13.62656 q 0.31543,13.94199 8.264258,16.97012 z" />
    <path id="col" d="m 115.24219,145.3709 q 5.04687,0 8.39043,3.02812 3.34355,2.96504 3.34355,7.6334 0,4.66836 -3.34355,7.69649 -3.34356,2.96504 -8.39043,2.96504 -5.10996,0 -8.45352,-3.02813 -3.28047,-3.02812 -3.28047,-7.6334 0,-4.60527 3.28047,-7.6334 3.34356,-3.02812 8.45352,-3.02812 z m 0,-50.342578 q 5.04687,0 8.39043,3.028125 3.34355,2.965043 3.34355,7.633403 0,4.66835 -3.34355,7.69648 -3.34356,2.96504 -8.39043,2.96504 -5.10996,0 -8.45352,-3.02813 -3.28047,-3.02812 -3.28047,-7.63339 0,-4.60528 3.28047,-7.633403 3.34356,-3.028125 8.45352,-3.028125 z" />
    <path id="com" d="m 199.11914,190.72969 -10.72461,-5.04688 2.14493,-4.28984 q 4.41601,-8.20117 4.60527,-15.64531 v -15.77149 h 17.0332 l -0.0631,13.68965 q -0.0631,7.25488 -3.72207,14.76211 -3.65899,7.50723 -9.27364,12.30176 z" />
    <path id="cb" d="m 211.0918,177.54473 q 7.94883,-3.02813 8.26426,-16.97012 v -13.68965 q 0,-14.19433 11.73398,-19.93515 -11.73398,-5.74082 -11.73398,-19.93516 V 93.325002 Q 219.04063,79.38301 211.0918,76.354885 l 3.97442,-11.103125 q 11.29238,3.154297 16.97011,10.346094 5.67774,7.12871 5.74082,18.736523 v 12.680273 q 0,12.80644 10.21993,12.80644 v 14.32051 q -10.21993,0 -10.21993,12.68028 v 13.4373 q -0.4416,22.20625 -22.71093,28.45176 z" />
  </g>
</svg>
