<?xml version="1.0" encoding="utf-8"?>
<svg xmlns="http://www.w3.org/2000/svg" width="512" height="512" viewBox="0 0 512 512">
  <style>
    .main  { fill: #222; }
    .flair { fill: #999; }
  </style>
  <g class="main">
    <path id="J" d="m 87.015312,209.90755 h 18.901368 v 53.9499 q 0,7.50654 -3.51026,13.39297 -3.456245,5.88642 -9.720698,9.12666 -6.210449,3.24023 -13.879004,3.24023 -12.852929,0 -19.981445,-6.48047 -7.128516,-6.48047 -7.128516,-18.36133 h 19.009375 q 0,5.40039 1.836133,7.83057 1.890137,2.43018 6.264453,2.43018 3.942285,0 6.048437,-2.91622 2.160157,-2.97021 2.160157,-8.26259 z" />
    <path id="S" d="m 158.40847,267.63772 q 0,-4.1583 -2.97021,-6.48047 -2.91621,-2.32217 -10.31475,-4.80635 -7.39853,-2.48418 -12.09687,-4.80634 -15.28311,-7.50655 -15.28311,-20.6295 0,-6.53447 3.78028,-11.50283 3.83427,-5.02236 10.80078,-7.77656 6.9665,-2.8082 15.66113,-2.8082 8.47861,0 15.1751,3.02422 6.75048,3.02421 10.47675,8.64062 3.72627,5.5624 3.72627,12.74492 h -18.90136 q 0,-4.80635 -2.97022,-7.45254 -2.91621,-2.64619 -7.93857,-2.64619 -5.07637,0 -8.04658,2.26817 -2.91622,2.21416 -2.91622,5.67041 0,3.02421 3.24024,5.50839 3.24023,2.43018 11.39482,5.07637 8.15459,2.59219 13.39297,5.61641 12.74492,7.34453 12.74492,20.25146 0,10.31475 -7.77656,16.20117 -7.77656,5.88643 -21.33154,5.88643 -9.55869,0 -17.33526,-3.40225 -7.72255,-3.45625 -11.66484,-9.39668 -3.88828,-5.99443 -3.88828,-13.77099 h 19.00937 q 0,6.31845 3.24024,9.34267 3.29424,2.97022 10.63877,2.97022 4.69834,0 7.39853,-1.99815 2.7542,-2.05214 2.7542,-5.72441 z" />
    <path id="O" d="m 253.67137,250.84251 q 0,11.50283 -4.26631,20.35947 -4.26631,8.85664 -12.15088,13.66299 -7.83056,4.75234 -17.87529,4.75234 -10.04472,0 -17.82129,-4.59033 -7.77656,-4.64434 -12.15088,-13.23096 -4.32031,-8.58662 -4.53632,-19.71142 v -4.42833 q 0,-11.55683 4.2123,-20.35947 4.26631,-8.85664 12.15088,-13.66299 7.93857,-4.80634 18.0373,-4.80634 9.99073,0 17.82129,4.75234 7.83057,4.75234 12.15088,13.55498 4.37432,8.74863 4.42832,20.08945 z m -19.27939,-3.29424 q 0,-11.71885 -3.94229,-17.76729 -3.88828,-6.10244 -11.17881,-6.10244 -14.25703,0 -15.06709,21.38555 l -0.054,5.77842 q 0,11.55683 3.83428,17.76728 3.83428,6.21045 11.39482,6.21045 7.18252,0 11.0708,-6.10244 3.88828,-6.10244 3.94229,-17.55127 z" />
    <path id="N" d="m 329.11482,288.53723 h -18.84737 l -27.86601,-48.92754 v 48.92754 h -18.95537 v -78.62968 h 18.95537 l 27.81201,48.92753 v -48.92753 h 18.90137 z" />
    <path id="5" d="m 374.26209,250.08645 4.80635,-40.1789 h 45.95732 v 14.14902 h -31.16025 l -1.78213,15.60713 q 1.94414,-1.13409 5.07637,-1.99815 3.18623,-0.86406 6.21044,-0.86406 11.71885,0 17.98331,6.9665 6.31845,6.9125 6.31845,19.44141 0,7.56055 -3.40224,13.71699 -3.34825,6.10244 -9.45069,9.39668 -6.10244,3.29424 -14.41904,3.29424 -7.39854,0 -13.879,-3.02422 -6.48047,-3.07822 -10.15274,-8.3706 -3.67226,-5.34639 -3.61826,-12.04288 h 18.25332 q 0.27002,4.32032 2.7542,6.8585 2.48418,2.53818 6.53447,2.53818 9.18067,0 9.18067,-13.60898 0,-12.58291 -11.23282,-12.58291 -6.37246,0 -9.50468,4.1043 z" />
  </g>
  <g class="flair">
    <path id="ob" d="m 44.190214,307.97864 q -19.441406,-5.4544 -19.441406,-25.11182 v -10.69277 q 0,-10.90879 -8.748633,-10.90879 v -12.25889 q 8.748633,0 8.748633,-10.96279 v -11.34082 q 0.162012,-9.7207 5.022363,-15.71514 4.914356,-5.99443 14.419043,-8.69463 l 3.402246,9.50469 q -6.804492,2.59219 -7.074511,14.52705 v 11.71885 q 0,12.09687 -9.990723,17.06523 9.990723,4.96836 9.990723,17.11924 v 11.66485 q 0.270019,11.93486 7.074511,14.52705 z" />
    <path id="col" d="m 351.58045,270.87795 q 4.32031,0 7.18252,2.59219 2.86221,2.53819 2.86221,6.53447 0,3.99629 -2.86221,6.58848 -2.86221,2.53818 -7.18252,2.53818 -4.37432,0 -7.23652,-2.59218 -2.80821,-2.59219 -2.80821,-6.53448 0,-3.94228 2.80821,-6.53447 2.8622,-2.59219 7.23652,-2.59219 z m 0,-43.09511 q 4.32031,0 7.18252,2.59219 2.86221,2.53818 2.86221,6.53447 0,3.99629 -2.86221,6.58847 -2.86221,2.53819 -7.18252,2.53819 -4.37432,0 -7.23652,-2.59219 -2.80821,-2.59219 -2.80821,-6.53447 0,-3.94229 2.80821,-6.53447 2.8622,-2.59219 7.23652,-2.59219 z" />
    <path id="com" d="m 443.92711,309.70676 -9.18066,-4.32031 1.83613,-3.67227 q 3.78027,-7.0205 3.94228,-13.39296 v -13.50098 h 14.58106 l -0.054,11.71885 q -0.054,6.21045 -3.18623,12.63691 -3.13222,6.42647 -7.93857,10.53076 z" />
    <path id="cb" d="m 464.44862,298.41995 q 6.80449,-2.59219 7.07451,-14.52705 v -11.71885 q 0,-12.15088 10.04473,-17.06524 -10.04473,-4.91435 -10.04473,-17.06523 v -11.71885 q -0.27002,-11.93486 -7.07451,-14.52705 l 3.40225,-9.50469 q 9.66669,2.7002 14.52705,8.85664 4.86035,6.10245 4.91435,16.03916 v 10.85479 q 0,10.96279 8.74863,10.96279 v 12.25889 q -8.74863,0 -8.74863,10.85478 v 11.50284 q -0.37803,19.00937 -19.4414,24.35576 z" />
  </g>
</svg>
